
<svg width="106" height="109" viewBox="0 0 106 109" fill="none" xmlns="http://www.w3.org/2000/svg">
<path d="M58.8774 108.509L6.24202 100.824L2.2583 35.1713L58.8774 42.8486L63.6924 62.3986L58.8774 108.509Z" fill="#D0B73F"/>
<path d="M58.8774 108.509L3.4346 100.417L2.2583 35.1713L58.8774 42.8486L63.6924 62.3986L58.8774 108.509Z" fill="#D0B73F"/>
<path d="M58.8774 108.509L103.051 99.8911L103.741 35.1713L58.8774 42.8486V108.509Z" fill="#EDDF5B"/>
<g style="mix-blend-mode:multiply">
<path d="M59.1364 42.8094V42.8486L58.9874 42.8329L58.8776 42.8486L2.52515 35.2026V37.9003L2.58788 46.5657L58.8776 54.2037L59.1364 54.2351V54.2743L103.545 46.6676L103.742 35.1713L59.1364 42.8094Z" fill="#EDEDED"/>
</g>
<path d="M0 25.6198V42.182L59.1363 50.2122L60.642 41.7742L59.1363 33.6499L0 25.6198Z" fill="#D0B73F"/>
<path d="M59.1365 33.6499V50.2122L106 42.182V25.6198L59.1365 33.6499Z" fill="#EDDF5B"/>
<path d="M0 25.6197L47.8831 18.6247L106 25.6197L59.1363 33.6499L0 25.6197Z" fill="#FFF46F"/>
<path d="M36.7085 105.475L35.5871 30.4504L82.5683 22.7966L68.9155 21.1577L23.4006 28.7957L24.1378 103.64L36.7085 105.475Z" fill="#00866E"/>
<path d="M35.5871 30.4504L82.5683 22.7966L68.9155 21.1577L23.4006 28.7957L35.5871 30.4504Z" fill="#11CBAA"/>
<path d="M77.6279 104.894L78.0435 30.4504L31.0623 22.7966L43.1703 21.7693L90.2221 28.7958V102.503L77.6279 104.894Z" fill="#00866E"/>
<path d="M78.0433 30.4504L21.2439 22.5144L34.8419 20.5303L90.2219 28.7958L78.0433 30.4504Z" fill="#11CBAA"/>
<path d="M80.0353 6.38341C79.5225 5.86953 78.9103 5.46546 78.2362 5.19582C77.5621 4.92617 76.8401 4.79661 76.1143 4.81501C75.683 4.81501 73.9735 5.709 71.8248 7.48128C72.1228 9.26926 71.6523 12.0924 68.4449 15.1899C66.6701 16.7793 64.751 18.1996 62.7124 19.4325C61.7329 21.6045 60.9914 23.8762 60.501 26.2079C60.501 26.2079 72.7345 20.2167 77.3455 15.7859C81.9566 11.3552 80.8901 7.45776 80.0353 6.38341Z" fill="#015647"/>
<path d="M54.4861 25.3453C54.4861 25.3453 56.9641 4.02296 63.2064 2.28204C67.9115 2.28204 70.8993 4.29743 76.0907 4.79932C69.7074 7.29307 62.7358 17.9425 60.4774 26.1922C55.6781 27.0862 54.4861 25.3453 54.4861 25.3453Z" fill="#01735E"/>
<path d="M55.2703 26.9215C55.2703 26.9215 47.7342 3.05837 30.4504 4.21898C33.7598 5.40312 48.7301 26.3961 48.7301 26.3961L55.2703 26.9215Z" fill="#014539"/>
<path d="M30.4504 4.21903C30.4504 4.21903 19.848 6.05406 27.5802 17.6759C32.6461 25.2826 55.2702 26.9216 55.2702 26.9216C55.2702 26.9216 52.2197 26.6 48.3771 26.0433C43.2877 25.3061 41.6958 21.9341 39.5157 19.8481C31.0699 11.763 34.4262 3.60736 41.2017 7.26172C37.6415 3.75636 30.4504 4.21903 30.4504 4.21903Z" fill="#01735E"/>
<path d="M56.4621 18.8992C56.4621 18.8992 59.842 7.41066 57.0189 2.83095C54.1958 -1.74877 43.6875 -0.980252 43.4209 6.70489C48.02 10.4914 52.3757 14.5643 56.4621 18.8992Z" fill="#01735E"/>
<path d="M57.3012 26.451C57.3012 26.451 54.8937 12.1237 52.9254 9.02612C50.9571 5.92854 45.9304 4.22683 39.5156 7.05778C47.9065 9.03396 51.8746 24.4278 52.1334 26.4275C53.7911 27.0884 55.6376 27.0968 57.3012 26.451Z" fill="#015647"/>
<path d="M49.6869 6.36772C49.6869 6.36772 43.28 5.27769 43.3584 10.3828C43.4917 18.6247 55.9918 26.851 55.9918 26.851C55.9918 26.851 50.5024 27.1568 47.7499 26.4432C44.9974 25.7296 34.5048 19.8638 34.05 14.3665C33.2265 4.79149 44.3386 3.03488 49.6869 6.36772Z" fill="#00866E"/>
<path d="M64.8532 6.73631C64.8532 6.73631 60.6812 8.1165 58.462 14.3666C57.1202 18.2943 56.5867 22.4529 56.8936 26.5922C56.8936 26.5922 60.1637 25.8786 61.1204 24.4513C61.3556 19.8246 66.0765 9.22222 72.405 7.98319C70.0157 6.99735 67.4326 6.57086 64.8532 6.73631Z" fill="#015647"/>
<path d="M55.8506 26.7647C55.8506 26.7647 73.3382 27.3215 77.7297 15.4958C79.0785 10.3593 74.538 2.86235 64.8532 6.73629C70.2406 9.4104 70.0838 20.5382 55.8506 26.7647Z" fill="#00866E"/>
</svg>
