
<svg width="89" height="65" viewBox="0 0 89 65" fill="none" xmlns="http://www.w3.org/2000/svg">
<path d="M48.1052 64.1824L20.2978 60.1224L18.1932 25.4377L48.1052 29.4937L50.649 39.822L48.1052 64.1824Z" fill="#D0B73F"/>
<path d="M48.1052 64.1824L18.8147 59.9069L18.1932 25.4377L48.1052 29.4937L50.649 39.822L48.1052 64.1824Z" fill="#D0B73F"/>
<path d="M48.1048 64.1824L71.442 59.6294L71.8065 25.4377L48.1048 29.4937V64.1824Z" fill="#EDDF5B"/>
<g style="mix-blend-mode:multiply">
<path d="M48.2421 29.473V29.4937L48.1634 29.4854L48.1054 29.4937L18.3343 25.4543V26.8795L18.3675 31.4574L48.1054 35.4926L48.2421 35.5092V35.5299L71.7036 31.5113L71.8071 25.4377L48.2421 29.473Z" fill="#EDEDED"/>
</g>
<path d="M17.0001 20.3917V29.1415L48.2419 33.3839L49.0373 28.9261L48.2419 24.634L17.0001 20.3917Z" fill="#D0B73F"/>
<path d="M48.2415 24.634V33.3839L72.9997 29.1415V20.3917L48.2415 24.634Z" fill="#EDDF5B"/>
<path d="M17.0001 20.3917L42.2968 16.6962L73.0001 20.3917L48.2419 24.634L17.0001 20.3917Z" fill="#FFF46F"/>
<path d="M36.3937 62.5792L35.8013 22.9437L60.6216 18.9002L53.4087 18.0344L29.3632 22.0696L29.7526 61.6097L36.3937 62.5792Z" fill="#00866E"/>
<path d="M35.8013 22.9437L60.6216 18.9002L53.4087 18.0344L29.3632 22.0696L35.8013 22.9437Z" fill="#11CBAA"/>
<path d="M58.0108 62.2725L58.2303 22.9437L33.41 18.9002L39.8067 18.3575L64.6643 22.0695V61.009L58.0108 62.2725Z" fill="#00866E"/>
<path d="M58.2307 22.9437L28.2234 18.751L35.4073 17.7029L64.6646 22.0695L58.2307 22.9437Z" fill="#11CBAA"/>
<path d="M59.2825 10.2291C59.0115 9.95761 58.6881 9.74414 58.332 9.60168C57.9759 9.45923 57.5944 9.39078 57.211 9.40051C56.9831 9.40051 56.08 9.8728 54.9448 10.8091C55.1023 11.7537 54.8537 13.2451 53.1592 14.8816C52.2216 15.7212 51.2077 16.4716 50.1307 17.1229C49.6132 18.2704 49.2215 19.4706 48.9624 20.7024C48.9624 20.7024 55.4254 17.5372 57.8614 15.1965C60.2975 12.8557 59.7341 10.7967 59.2825 10.2291Z" fill="#015647"/>
<path d="M45.7849 20.2467C45.7849 20.2467 47.0941 8.98205 50.3919 8.06232C52.8776 8.06232 54.4561 9.12705 57.1987 9.3922C53.8264 10.7097 50.1433 16.3358 48.9501 20.6941C46.4147 21.1664 45.7849 20.2467 45.7849 20.2467Z" fill="#01735E"/>
<path d="M46.1999 21.0794C46.1999 21.0794 42.2185 8.47241 33.0875 9.08557C34.8358 9.71115 42.7447 20.8018 42.7447 20.8018L46.1999 21.0794Z" fill="#014539"/>
<path d="M33.0875 9.08561C33.0875 9.08561 27.4862 10.0551 31.5711 16.1949C34.2475 20.2135 46.1998 21.0794 46.1998 21.0794C46.1998 21.0794 44.5882 20.9095 42.5582 20.6154C39.8694 20.226 39.0284 18.4445 37.8767 17.3425C33.4147 13.0711 35.1879 8.76246 38.7674 10.6931C36.8865 8.84118 33.0875 9.08561 33.0875 9.08561Z" fill="#01735E"/>
<path d="M46.8287 16.8412C46.8287 16.8412 48.6143 10.7718 47.1228 8.35231C45.6314 5.93283 40.0799 6.33884 39.939 10.3989C42.3687 12.3994 44.6698 14.551 46.8287 16.8412Z" fill="#01735E"/>
<path d="M47.2726 20.8308C47.2726 20.8308 46.0007 13.2617 44.9608 11.6252C43.9209 9.98876 41.2653 9.08975 37.8764 10.5853C42.3093 11.6294 44.4057 19.7619 44.5424 20.8184C45.4181 21.1676 46.3937 21.172 47.2726 20.8308Z" fill="#015647"/>
<path d="M43.2494 10.2208C43.2494 10.2208 39.8647 9.64493 39.9061 12.342C39.9765 16.6962 46.5803 21.0421 46.5803 21.0421C46.5803 21.0421 43.6803 21.2037 42.2261 20.8267C40.772 20.4497 35.2287 17.3508 34.9884 14.4466C34.5534 9.38806 40.4239 8.46005 43.2494 10.2208Z" fill="#00866E"/>
<path d="M51.2625 10.4155C51.2625 10.4155 49.0585 11.1446 47.886 14.4465C47.1772 16.5216 46.8953 18.7186 47.0574 20.9054C47.0574 20.9054 48.785 20.5284 49.2905 19.7743C49.4148 17.33 51.9088 11.7288 55.2522 11.0742C53.9899 10.5534 52.6252 10.3281 51.2625 10.4155Z" fill="#015647"/>
<path d="M46.5064 20.9965C46.5064 20.9965 55.7452 21.2907 58.0652 15.0431C58.7778 12.3295 56.379 8.36885 51.2625 10.4155C54.1087 11.8282 54.0259 17.707 46.5064 20.9965Z" fill="#00866E"/>
<path d="M10.6941 22.4143L11 22.5394L10.6802 22.6644C9.71077 22.9751 8.83157 23.517 8.1186 24.2433C7.40562 24.9696 6.88031 25.8585 6.58805 26.8332L6.5 27L6.43048 26.8796C6.12511 25.8544 5.56972 24.9211 4.81419 24.1635C4.05866 23.406 3.12667 22.8479 2.10196 22.5394L2 22.4977L2.25489 22.4282C3.237 22.119 4.13071 21.5792 4.86121 20.8539C5.59172 20.1286 6.13777 19.2389 6.45366 18.2594L6.5 18L6.60196 18.3937C6.92457 19.3356 7.46238 20.1894 8.17272 20.8873C8.88306 21.5852 9.74636 22.108 10.6941 22.4143Z" fill="#FFF7E1"/>
<path d="M88.694 15.4143L88.9998 15.5394L88.6801 15.6644C87.7106 15.9751 86.8314 16.517 86.1184 17.2433C85.4055 17.9696 84.8802 18.8585 84.5879 19.8332L84.4998 20L84.4303 19.8796C84.125 18.8544 83.5696 17.9211 82.814 17.1635C82.0585 16.406 81.1265 15.8479 80.1018 15.5394L79.9998 15.4977L80.2547 15.4282C81.2368 15.119 82.1306 14.5792 82.8611 13.8539C83.5916 13.1286 84.1376 12.2389 84.4535 11.2594L84.4998 11L84.6018 11.3937C84.9244 12.3356 85.4622 13.1894 86.1726 13.8873C86.8829 14.5852 87.7462 15.108 88.694 15.4143Z" fill="#FFF7E1"/>
<path d="M67.8299 2.45239L67.9998 2.52187L67.8222 2.59135C67.2836 2.76393 66.7952 3.06498 66.3991 3.4685C66.003 3.87201 65.7111 4.36586 65.5488 4.90736L65.4998 5L65.4612 4.93309C65.2916 4.36355 64.983 3.84506 64.5633 3.42419C64.1435 3.00332 63.6258 2.69326 63.0565 2.52187L62.9998 2.49871L63.1415 2.46011C63.6871 2.28833 64.1836 1.98842 64.5894 1.58547C64.9952 1.18253 65.2986 0.688286 65.4741 0.144107L65.4998 0L65.5565 0.218734C65.7357 0.742009 66.0345 1.21633 66.4291 1.60406C66.8238 1.99179 67.3034 2.28225 67.8299 2.45239Z" fill="#FFF7E1"/>
<path opacity="0.6" d="M81.8299 39.4524L81.9998 39.5219L81.8222 39.5914C81.2836 39.7639 80.7952 40.065 80.3991 40.4685C80.003 40.872 79.7111 41.3659 79.5488 41.9074L79.4998 42L79.4612 41.9331C79.2916 41.3636 78.983 40.8451 78.5633 40.4242C78.1435 40.0033 77.6258 39.6933 77.0565 39.5219L76.9998 39.4987L77.1415 39.4601C77.6871 39.2883 78.1836 38.9884 78.5894 38.5855C78.9952 38.1825 79.2986 37.6883 79.4741 37.1441L79.4998 37L79.5565 37.2187C79.7357 37.742 80.0345 38.2163 80.4291 38.6041C80.8238 38.9918 81.3034 39.2822 81.8299 39.4524Z" fill="#FFF7E1"/>
<path d="M11.8301 54.4524L12 54.5219L11.8223 54.5914C11.2838 54.7639 10.7953 55.065 10.3992 55.4685C10.0031 55.872 9.71128 56.3659 9.54892 56.9074L9.5 57L9.46138 56.9331C9.29173 56.3636 8.98318 55.8451 8.56344 55.4242C8.1437 55.0033 7.62593 54.6933 7.05664 54.5219L7 54.4987L7.14161 54.4601C7.68722 54.2883 8.18373 53.9884 8.58956 53.5855C8.9954 53.1825 9.29876 52.6883 9.47425 52.1441L9.5 52L9.55664 52.2187C9.73587 52.742 10.0347 53.2163 10.4293 53.6041C10.8239 53.9918 11.3035 54.2822 11.8301 54.4524Z" fill="#FFF7E1"/>
<path d="M3.86406 46.9619L4 47.0175L3.85788 47.0731C3.42701 47.2111 3.03626 47.452 2.71938 47.7748C2.4025 48.0976 2.16903 48.4927 2.03913 48.9259L2 49L1.9691 48.9465C1.83338 48.4908 1.58654 48.076 1.25075 47.7393C0.914961 47.4027 0.500744 47.1546 0.0453141 47.0175L0 46.999L0.113285 46.9681C0.549776 46.8307 0.94698 46.5907 1.27165 46.2684C1.59632 45.946 1.83901 45.5506 1.9794 45.1153L2 45L2.04531 45.175C2.1887 45.5936 2.42773 45.9731 2.74343 46.2832C3.05914 46.5934 3.44283 46.8258 3.86406 46.9619Z" fill="#FFF7E1" fill-opacity="0.6"/>
<path opacity="0.6" d="M23.8983 4.47144L24.0002 4.51312L23.8937 4.55481C23.5705 4.65836 23.2774 4.83899 23.0398 5.0811C22.8021 5.32321 22.627 5.61952 22.5296 5.94442L22.5002 6L22.4771 5.95986C22.3753 5.61813 22.1902 5.30703 21.9383 5.05451C21.6865 4.80199 21.3758 4.61596 21.0342 4.51312L21.0002 4.49923L21.0852 4.47607C21.4126 4.373 21.7105 4.19305 21.954 3.95128C22.1975 3.70952 22.3795 3.41297 22.4848 3.08646L22.5002 3L22.5342 3.13124C22.6418 3.44521 22.821 3.7298 23.0578 3.96243C23.2946 4.19507 23.5824 4.36935 23.8983 4.47144Z" fill="#FFF7E1"/>
</svg>
