
<svg width="28" height="28" viewBox="0 0 28 28" fill="none" xmlns="http://www.w3.org/2000/svg">
<path d="M24.9998 6.40291H20.3219C21.2473 5.8697 21.9714 5.05406 22.3849 4.07912C22.6235 3.48852 22.6681 2.83912 22.5119 2.22233C22.3558 1.60555 22.007 1.05256 21.5148 0.641872C20.9047 0.110863 20.0778 -0.107984 19.2798 0.0505918C17.1999 0.434879 15.1599 3.1271 13.9999 4.92865C12.8398 3.12733 10.7999 0.434867 8.72001 0.0525627C7.92201 -0.106035 7.09498 0.112834 6.48498 0.643843C5.99279 1.05453 5.6439 1.60752 5.4879 2.22431C5.33165 2.84109 5.37629 3.49043 5.61491 4.08109C6.02852 5.05513 6.75285 5.87014 7.67788 6.40285H3C2.20423 6.40285 1.44131 6.71433 0.87857 7.26866C0.316068 7.8232 0 8.57505 0 9.35925V12.1797V12.1795C0.00245537 12.7888 0.195982 13.3825 0.554016 13.8792C0.91205 14.3759 1.41716 14.7516 2.00001 14.9547V25.0436C2.00001 25.8278 2.31608 26.5796 2.87858 27.1342C3.44131 27.6885 4.20424 28 5.00001 28H23C23.7958 28 24.5587 27.6885 25.1214 27.1342C25.6839 26.5796 26 25.8278 26 25.0436V14.9547C26.5828 14.7516 27.0879 14.376 27.446 13.8792C27.804 13.3825 27.9975 12.7888 28 12.1795V9.35926C28 8.57505 27.6839 7.82322 27.1214 7.26866C26.5587 6.71433 25.7958 6.40286 25 6.40286L24.9998 6.40291ZM11.5449 13.1649V8.37373H16.455V13.1651L11.5449 13.1649ZM16.455 15.1358L16.4548 26.0295H11.5447L11.5449 15.1358H16.455ZM19.6481 1.98971H19.6478C19.6981 1.98135 19.749 1.97761 19.7999 1.97893C19.9552 1.98003 20.1039 2.04052 20.2148 2.14743C20.3958 2.29657 20.5224 2.50026 20.5749 2.72683C20.6275 2.95361 20.6032 3.19096 20.5059 3.40302C20.147 4.36298 18.7059 5.45865 15.8239 5.78796C17.0067 4.01193 18.5688 2.18792 19.6478 1.98975L19.6481 1.98971ZM7.7818 2.14259C7.89474 2.03722 8.04452 1.9787 8.19988 1.97893C8.25166 1.97915 8.30322 1.98443 8.35389 1.99477C9.43292 2.19186 10.995 4.01694 12.176 5.78791C9.29098 5.45883 7.85304 4.36293 7.49407 3.40297H7.49384C7.39518 3.1907 7.36973 2.95247 7.42174 2.7248C7.47398 2.49713 7.60032 2.29234 7.78179 2.14253L7.7818 2.14259ZM2.00009 9.35901C2.00009 9.09769 2.10545 8.84692 2.29295 8.66215C2.48044 8.47738 2.73491 8.37355 3.00009 8.37355H9.54522V13.1649L3.00009 13.1647C2.73491 13.1647 2.48044 13.0609 2.29295 12.8761C2.10545 12.6913 2.00009 12.4408 2.00009 12.1793V9.35901ZM4.00009 25.0437V15.1355H9.54517V26.0292H5.00009C4.73491 26.0292 4.48044 25.9253 4.29294 25.7406C4.10545 25.5558 4.00009 25.3052 4.00009 25.0437ZM23.0001 26.0292H18.455V15.1355H24.0001V25.0437C24.0001 25.3052 23.8947 25.5558 23.7072 25.7406C23.5197 25.9253 23.2652 26.0292 23.0001 26.0292ZM26.0001 12.1791C26.0001 12.4407 25.8947 12.6912 25.7072 12.876C25.5197 13.0608 25.2652 13.1646 25.0001 13.1646H18.4549V8.37344H25.0001C25.2652 8.37344 25.5197 8.47726 25.7072 8.66204C25.8947 8.84681 26.0001 9.09758 26.0001 9.3589V12.1791Z" fill="#FFE296"/>
</svg>
