
<svg width="148" height="148" viewBox="0 0 148 148" fill="none" xmlns="http://www.w3.org/2000/svg">
<mask id="mask0_1_471" style="mask-type:alpha" maskUnits="userSpaceOnUse" x="0" y="0" width="148" height="148">
<path d="M146.83 76.9631C148.39 75.4031 148.39 72.7521 146.83 71.1931L135.446 59.8088C134.354 58.7166 134.042 57.3133 134.354 55.91L138.565 40.159C139.188 37.9758 137.785 35.7924 135.758 35.168L120.163 30.957C118.759 30.6448 117.667 29.5536 117.356 28.1504L112.988 12.3986C112.365 10.2153 110.182 8.9676 107.997 9.59197L92.4019 13.803C90.9986 14.1152 89.4385 13.803 88.5031 12.7108L76.9622 1.16998C75.4023 -0.389993 72.7512 -0.389993 71.1923 1.16998L59.808 12.5543C58.7158 13.6465 57.3125 13.9576 55.9092 13.6465L40.1582 9.43546C37.9749 8.81213 35.7915 10.2155 35.1671 12.2421L30.9561 27.8374C30.6439 29.2407 29.5528 30.3329 28.1495 30.644L12.3986 35.0118C10.2153 35.6351 8.96759 37.8184 9.59196 40.0028L13.803 55.5981C14.1152 57.0014 13.803 58.5615 12.7108 59.4969L1.16997 71.0377C-0.390002 72.5977 -0.390002 75.2487 1.16997 76.8077L12.5543 88.192C13.6465 89.2842 13.9576 90.6875 13.6465 92.0908L9.43545 107.842C8.81211 110.025 10.2154 112.208 12.242 112.833L27.8373 117.044C29.2407 117.356 30.3328 118.447 30.6439 119.85L35.0117 135.601C35.6351 137.785 37.8183 139.032 40.0028 138.408L55.5981 134.197C57.0014 133.885 58.5615 134.197 59.4969 135.289L71.0377 146.83C72.5977 148.39 75.2487 148.39 76.8077 146.83L88.192 135.446C89.2842 134.354 90.6875 134.042 92.0908 134.354L107.842 138.565C110.025 139.188 112.208 137.785 112.833 135.758L117.044 120.163C117.356 118.759 118.447 117.667 119.85 117.356L135.601 112.988C137.785 112.365 139.032 110.182 138.408 107.997L134.197 92.4019C133.885 90.9986 134.197 89.4385 135.289 88.5031L146.83 76.9631Z" fill="#FFE196"/>
</mask>
<g mask="url(#mask0_1_471)">
<path d="M146.83 76.9631C148.39 75.4031 148.39 72.7521 146.83 71.1931L135.446 59.8088C134.354 58.7166 134.042 57.3133 134.354 55.91L138.565 40.159C139.188 37.9758 137.785 35.7924 135.758 35.168L120.163 30.957C118.759 30.6448 117.667 29.5536 117.356 28.1504L112.988 12.3986C112.365 10.2153 110.182 8.9676 107.997 9.59197L92.4019 13.803C90.9986 14.1152 89.4385 13.803 88.5031 12.7108L76.9622 1.16998C75.4023 -0.389993 72.7512 -0.389993 71.1923 1.16998L59.808 12.5543C58.7158 13.6465 57.3125 13.9576 55.9092 13.6465L40.1582 9.43546C37.9749 8.81213 35.7915 10.2155 35.1671 12.2421L30.9561 27.8374C30.6439 29.2407 29.5528 30.3329 28.1495 30.644L12.3986 35.0118C10.2153 35.6351 8.96759 37.8184 9.59196 40.0028L13.803 55.5981C14.1152 57.0014 13.803 58.5615 12.7108 59.4969L1.16997 71.0377C-0.390002 72.5977 -0.390002 75.2487 1.16997 76.8077L12.5543 88.192C13.6465 89.2842 13.9576 90.6875 13.6465 92.0908L9.43545 107.842C8.81211 110.025 10.2154 112.208 12.242 112.833L27.8373 117.044C29.2407 117.356 30.3328 118.447 30.6439 119.85L35.0117 135.601C35.6351 137.785 37.8183 139.032 40.0028 138.408L55.5981 134.197C57.0014 133.885 58.5615 134.197 59.4969 135.289L71.0377 146.83C72.5977 148.39 75.2487 148.39 76.8077 146.83L88.192 135.446C89.2842 134.354 90.6875 134.042 92.0908 134.354L107.842 138.565C110.025 139.188 112.208 137.785 112.833 135.758L117.044 120.163C117.356 118.759 118.447 117.667 119.85 117.356L135.601 112.988C137.785 112.365 139.032 110.182 138.408 107.997L134.197 92.4019C133.885 90.9986 134.197 89.4385 135.289 88.5031L146.83 76.9631Z" fill="#FFE196"/>
</g>
</svg>
